<svg xmlns="http://www.w3.org/2000/svg" width="148" height="50" viewBox="0 0 148 50" fill="none">
  <defs>
    <linearGradient id="sheen3" x1="0" y1="0" x2="0" y2="1">
      <stop offset="0" stop-color="#ffffff" stop-opacity="0.05"/>
      <stop offset="1" stop-color="#000000" stop-opacity="0.15"/>
    </linearGradient>
  </defs>
  <!-- charcoal base -->
  <rect width="148" height="50" rx="12" fill="#1d1a16"/>
  <rect width="148" height="50" rx="12" fill="url(#sheen3)"/>
  <!-- subtle border (visible on both light & dark GitHub themes) -->
  <rect x="0.75" y="0.75" width="146.5" height="48.5" rx="11.25" fill="none" stroke="#5f574d" stroke-width="1.5"/>
  <!-- GitHub mark -->
  <path transform="translate(18 12) scale(1.08)" d="M12 .297c-6.63 0-12 5.373-12 12 0 5.303 3.438 9.8 8.205 11.385.6.113.82-.258.82-.577 0-.285-.01-1.04-.015-2.04-3.338.724-4.042-1.61-4.042-1.61-.546-1.387-1.333-1.756-1.333-1.756-1.089-.745.083-.729.083-.729 1.205.084 1.839 1.237 1.839 1.237 1.07 1.834 2.807 1.304 3.492.997.107-.775.418-1.305.762-1.604-2.665-.305-5.467-1.334-5.467-5.931 0-1.311.469-2.381 1.236-3.221-.124-.303-.535-1.524.117-3.176 0 0 1.008-.322 3.301 1.23A11.509 11.509 0 0 1 12 5.803c1.02.005 2.047.138 3.006.404 2.291-1.552 3.297-1.23 3.297-1.23.653 1.653.242 2.874.118 3.176.77.84 1.235 1.911 1.235 3.221 0 4.609-2.807 5.624-5.479 5.921.43.372.823 1.102.823 2.222 0 1.606-.014 2.898-.014 3.293 0 .322.216.694.825.576C20.565 22.092 24 17.592 24 12.297c0-6.627-5.373-12-12-12" fill="#f7f5f1"/>
  <!-- star icon -->
  <path d="M122 18 L123.6 22.2 L128 22.6 L124.6 25.5 L125.7 30 L122 27.6 L118.3 30 L119.4 25.5 L116 22.6 L120.4 22.2 Z" fill="#eec35a"/>
  <!-- label -->
  <text x="100" y="32" font-family="'Segoe UI', Helvetica, Arial, sans-serif" font-size="15" font-weight="600" fill="#f7f5f1" text-anchor="middle">Star</text>
</svg>
