<svg xmlns="http://www.w3.org/2000/svg" viewBox="0 0 32 32">
  <defs>
    <linearGradient id="g" x1="0" y1="0" x2="1" y2="1">
      <stop offset="0" stop-color="#eec35a" />
      <stop offset="0.5" stop-color="#e7ac34" />
      <stop offset="1" stop-color="#d9911e" />
    </linearGradient>
  </defs>
  <rect width="32" height="32" rx="8" fill="url(#g)" />
  <g fill="none" stroke="#131110" stroke-width="2.6" stroke-linecap="round" stroke-linejoin="round">
    <path d="M12 6c-3 0-4.2 1.3-4.2 4 0 2-.5 3.2-1.8 3.8-.5.2-.5 1 0 1.2 1.3.6 1.8 1.8 1.8 3.8 0 2.7 1.2 4 4.2 4" />
    <path d="M20 6c3 0 4.2 1.3 4.2 4 0 2 .5 3.2 1.8 3.8.5.2.5 1 0 1.2-1.3.6-1.8 1.8-1.8 3.8 0 2.7-1.2 4-4.2 4" />
  </g>
</svg>
